<svg xmlns="http://www.w3.org/2000/svg" viewBox="0 0 32 32" fill="none">
  <!-- Background -->
  <rect x="2" y="2" width="28" height="28" rx="6" fill="#6D28D9" stroke="#fff" stroke-width="1"/>
  
  <!-- Manga Pages - Bottom Layer -->
  <path d="M8 8 L16 6 L24 8 V24 L16 22 L8 24 Z" fill="#fff" stroke="#6D28D9" stroke-width="0.75"/>
  
  <!-- Manga Pages - Top Layer with Curve -->
  <path d="M16 6 C14 11, 14 17, 16 22" stroke="#6D28D9" stroke-width="0.75"/>
  
  <!-- Manga Panel Lines -->
  <path d="M10 11 L14 10.5" stroke="#6D28D9" stroke-width="0.5"/>
  <path d="M18 10.5 L22 11" stroke="#6D28D9" stroke-width="0.5"/>
  <path d="M10 14 L14 13.5" stroke="#6D28D9" stroke-width="0.5"/>
  <path d="M18 13.5 L22 14" stroke="#6D28D9" stroke-width="0.5"/>
  
  <!-- Manga Character Silhouette -->
  <path d="M14 13 C13.5 12.5, 13.5 12, 14 11.5 C14.5 11, 15.5 11, 16 11.5 C16.5 11, 17.5 11, 18 11.5 C18.5 12, 18.5 12.5, 18 13 Z" 
        fill="#6D28D9" opacity="0.8"/>
</svg> 