<svg xmlns="http://www.w3.org/2000/svg" viewBox="0 0 100 100" fill="none">
  <!-- Background -->
  <rect x="5" y="5" width="90" height="90" rx="15" fill="#6D28D9" stroke="#fff" stroke-width="3"/>
  
  <!-- Manga Pages - Bottom Layer -->
  <path d="M25 25 L50 20 L75 25 V75 L50 70 L25 75 Z" fill="#fff" stroke="#6D28D9" stroke-width="2"/>
  
  <!-- Manga Pages - Top Layer with Curve -->
  <path d="M50 20 C45 35, 45 55, 50 70" stroke="#6D28D9" stroke-width="2"/>
  
  <!-- Manga Panel Lines -->
  <path d="M30 35 L45 33" stroke="#6D28D9" stroke-width="1.5"/>
  <path d="M55 33 L70 35" stroke="#6D28D9" stroke-width="1.5"/>
  <path d="M30 45 L45 43" stroke="#6D28D9" stroke-width="1.5"/>
  <path d="M55 43 L70 45" stroke="#6D28D9" stroke-width="1.5"/>
  <path d="M30 55 L45 53" stroke="#6D28D9" stroke-width="1.5"/>
  <path d="M55 53 L70 55" stroke="#6D28D9" stroke-width="1.5"/>
  
  <!-- Speed Lines -->
  <path d="M28 30 L32 28" stroke="#6D28D9" stroke-width="1" opacity="0.6"/>
  <path d="M68 30 L72 28" stroke="#6D28D9" stroke-width="1" opacity="0.6"/>
  <path d="M28 50 L32 48" stroke="#6D28D9" stroke-width="1" opacity="0.6"/>
  <path d="M68 50 L72 48" stroke="#6D28D9" stroke-width="1" opacity="0.6"/>
  
  <!-- Manga Character Silhouette -->
  <path d="M45 40 C43 38, 43 36, 45 35 C47 34, 49 34, 50 35 C51 34, 53 34, 55 35 C57 36, 57 38, 55 40 Z" 
        fill="#6D28D9" opacity="0.8"/>
  
  <!-- Brand Text -->
  <text x="50" y="88" fill="#fff" font-family="Arial, sans-serif" font-size="12" font-weight="bold" text-anchor="middle">
    MANGA CLAN
  </text>
  
  <!-- Decorative Stars -->
  <path d="M30 65 L32 67 L30 69 L28 67 Z" fill="#fff" opacity="0.8"/>
  <path d="M70 65 L72 67 L70 69 L68 67 Z" fill="#fff" opacity="0.8"/>
</svg>
